<svg xmlns="http://www.w3.org/2000/svg" width="32" height="32" viewBox="0 0 32 32">
    <path d="M18.6705152,5 C15.4368596,5 13.3465147,7.12538688 13.3465147,10.4143151 L13.3465146,13.3162435 L10.4520133,13.3162435 C10.2029153,13.3162435 10,13.5162227 10,13.7642655 L10,16.9767224 C10,17.2236209 10.2029153,17.4247445 10.4520133,17.4247445 L13.3465147,17.4247445 L13.3465147,26.5519779 C13.3465147,26.7988764 13.5494299,27 13.7996825,27 L17.5745418,27 C17.8247944,27 18.0277096,26.7988764 18.0277096,26.5519779 L18.0277096,17.4247445 L21.4114591,17.4247445 C21.6617116,17.4247445 21.863761,17.2236209 21.863761,16.9767224 L21.8657815,13.7642655 C21.8657815,13.6458229 21.8172896,13.5319578 21.7327175,13.4469881 C21.6481455,13.3631628 21.533266,13.3162435 21.4126136,13.3162435 L18.0277096,13.3162435 L18.0277096,10.794533 C18.0277096,9.77747146 18.272478,9.26107311 19.6086015,9.26107311 L21.5479867,9.25992874 C21.7982393,9.25992874 22,9.05880517 22,8.81190668 L22,5.45374392 C22,5.20541497 21.7982393,5.00543577 21.5491413,5.0042914 L18.6705152,5 Z"/>
</svg>
