<svg xmlns="http://www.w3.org/2000/svg" width="32" height="32" viewBox="0 0 32 32">
    <path d="M27.7913978,21.483831 C27.3749992,20.7170736 26.5792726,19.7759332 25.4046995,18.6601413 L25.3674538,18.6220607 C24.8092066,18.0896488 24.4716322,17.740301 24.330265,17.5614431 C24.0716025,17.2207317 24.0136551,16.8758587 24.1550223,16.5264214 C24.2548984,16.2624081 24.6300685,15.7048477 25.2796573,14.8529796 C25.6213458,14.4015168 25.8919567,14.0396843 26.0917965,13.7670794 C27.5330854,11.808011 28.1579458,10.5561404 27.9662467,10.0109752 L27.8917991,9.8835776 C27.8417735,9.80687949 27.7126611,9.73671459 27.5046368,9.67272492 C27.2961312,9.60886949 27.0296343,9.59830896 26.7046649,9.64086433 L23.1059727,9.6662812 C23.0476751,9.64516014 22.9644304,9.64712905 22.8559759,9.67272492 C22.7476528,9.69832079 22.6934693,9.71116347 22.6934693,9.71116347 L22.6308389,9.7431583 L22.5811196,9.78159686 C22.5394535,9.80701373 22.4936295,9.85171701 22.4436039,9.91561718 C22.3938409,9.97929361 22.3522186,10.0540228 22.3189557,10.1391783 C21.9271541,11.16977 21.4816943,12.1279594 20.9817446,13.0137017 C20.6734941,13.5418626 20.3904096,13.9995901 20.1318783,14.3871527 C19.8736972,14.7745811 19.6570947,15.0600287 19.4822895,15.2430034 C19.3072218,15.426157 19.1492232,15.5728858 19.0073308,15.6837267 C18.8656572,15.7946122 18.7575091,15.8414634 18.6826239,15.8243249 C18.6075636,15.8071864 18.53688,15.7901822 18.4699604,15.7731779 C18.3534091,15.6964798 18.2596603,15.5921722 18.1889767,15.4601655 C18.1179867,15.3281589 18.0701933,15.1620095 18.0452023,14.9618516 C18.0203427,14.7615594 18.005637,14.5892795 18.0014354,14.4444302 C17.9975401,14.2997598 17.9993346,14.0951271 18.0077816,13.8311138 C18.0164475,13.5669662 18.0203427,13.3882426 18.0203427,13.2945403 C18.0203427,12.9708331 18.0265139,12.6195164 18.0388999,12.2405006 C18.0515048,11.8614849 18.0617025,11.5611809 18.070237,11.3399467 C18.0787278,11.1184887 18.0826668,10.8841881 18.0826668,10.637179 C18.0826668,10.3901699 18.0679611,10.1964558 18.0388999,10.0558575 C18.0101888,9.91543819 17.9661155,9.77913571 17.9080368,9.64699481 C17.8496079,9.51498814 17.7640873,9.41287316 17.6518689,9.34038136 C17.5394317,9.26797906 17.3996401,9.2105226 17.233282,9.16783299 C16.7917174,9.06567326 16.2294436,9.01040945 15.5461981,9.00181783 C13.9968049,8.98481358 13.0012385,9.08710756 12.5597177,9.30856552 C12.3847813,9.40213363 12.2264763,9.52997873 12.084934,9.69169808 C11.9349447,9.87914754 11.9140242,9.98144152 12.0223035,9.99826678 C12.5222094,10.0748306 12.8761088,10.2579843 13.0843957,10.5475487 L13.159456,10.7009897 C13.2178411,10.8116963 13.2761386,11.0076926 13.3344799,11.2887102 C13.3927337,11.5697278 13.4303295,11.8805923 13.4468734,12.2211247 C13.488452,12.842988 13.488452,13.3753105 13.4468734,13.8181369 C13.4051635,14.2611423 13.3657733,14.6060153 13.3281775,14.8530244 C13.2905817,15.1000335 13.234385,15.3001914 13.159456,15.4534533 C13.0843957,15.6067601 13.0344576,15.7004624 13.0094229,15.7344709 C12.984432,15.7684794 12.9635989,15.7899137 12.947055,15.7983263 C12.8387757,15.8407475 12.7261633,15.8623608 12.609612,15.8623608 C12.4928856,15.8623608 12.3513433,15.8026669 12.1847664,15.6833687 C12.0182332,15.5640704 11.8453976,15.4002032 11.6662596,15.1914984 C11.4871215,14.9827489 11.2850933,14.6910365 11.0600875,14.3163166 C10.8352568,13.9415967 10.6019791,13.4987255 10.3603856,12.9877031 L10.160502,12.6171 C10.0355474,12.3786825 9.8648564,12.0315274 9.64825386,11.5759478 C9.43152001,11.1201892 9.23995215,10.6793317 9.07341897,10.2534647 C9.00684947,10.0746069 8.90684203,9.93843867 8.77357172,9.84473631 L8.71102878,9.80629776 C8.66945019,9.77228927 8.60270562,9.73617761 8.5111452,9.69769431 C8.41945348,9.65925576 8.32377896,9.63169098 8.22372776,9.61473148 L4.79988445,9.64014836 C4.45001159,9.64014836 4.21261975,9.72118703 4.0876214,9.88304062 L4.03759579,9.95960449 C4.01260488,10.0022493 4,10.0703558 4,10.1641029 C4,10.2578053 4.02499092,10.3728077 4.07501652,10.5089759 C4.57483488,11.7100128 5.11837641,12.8683154 5.7056411,13.9840626 C6.29290579,15.0998097 6.80322822,15.9985737 7.23630201,16.6795491 C7.66946333,17.3610167 8.11098414,18.0041801 8.56086443,18.6087258 C9.01074473,19.2134953 9.30853493,19.601058 9.45423505,19.7713242 C9.60011023,19.9419036 9.71469206,20.0694355 9.79798053,20.154591 L10.1104327,20.4611597 C10.31036,20.6656134 10.6039486,20.9104746 10.9913297,21.1957432 C11.3787983,21.4811908 11.807758,21.7622084 12.2784276,22.0392434 C12.7491847,22.3158309 13.2968404,22.5415399 13.9217008,22.716102 C14.5464738,22.890843 15.1545716,22.9609632 15.7460816,22.9271336 L17.1831251,22.9271336 C17.4745691,22.9014035 17.6953732,22.8077012 17.8454501,22.6459818 L17.8951693,22.5819474 C17.9286072,22.5311137 17.9599006,22.4521334 17.9887868,22.3458568 C18.0180231,22.2394013 18.0325537,22.1221167 18.0325537,21.9945401 C18.0240191,21.6283671 18.0512859,21.2983504 18.11361,21.0045349 C18.1758904,20.7108089 18.2468804,20.4893509 18.3262736,20.3402058 C18.405623,20.1911949 18.4951702,20.0654529 18.5948275,19.9635169 C18.6947036,19.8613572 18.7658686,19.7994707 18.8076223,19.7781706 C18.8491133,19.7567363 18.8822449,19.7421932 18.9072358,19.7334673 C19.1071632,19.6653609 19.3424542,19.7313194 19.613459,19.9316563 C19.884245,20.1318142 20.1382245,20.3789576 20.3757915,20.6726836 C20.6132271,20.9666781 20.8984999,21.2965157 21.2316538,21.6626888 C21.5650265,22.0289961 21.8565143,22.3012878 22.1063359,22.4804141 L22.3561576,22.6337209 C22.5229971,22.7360148 22.7395997,22.8297172 23.0062278,22.9148727 C23.2723745,22.9999834 23.5055648,23.0212835 23.7057985,22.9787281 L26.9045922,22.9277154 C27.2209834,22.9277154 27.4671724,22.874152 27.6418024,22.7678754 C27.8167826,22.6614199 27.9207291,22.5441353 27.9542545,22.4165587 C27.9876925,22.2888479 27.9894869,22.1439538 27.9606007,21.9819659 C27.9309705,21.8203808 27.901778,21.7073921 27.8727167,21.6435366 C27.8436555,21.5795022 27.8165638,21.5263863 27.7913978,21.483831 Z"/>
</svg>
