<?xml version="1.0" encoding="UTF-8"?>
<svg width="36" height="36" viewBox="0 0 36 36" version="1.1" xmlns="http://www.w3.org/2000/svg">
  <title>OneDrive icon</title>
  <path
     d="m 11.484909,17.962438 c 0.863167,-3.475707 3.98616,-6.015574 7.694053,-6.015574 2.190701,0 4.243159,0.895068 5.728443,2.449476 0.627434,-0.202055 1.361213,-0.358028 2.013463,-0.372207 l 0,-0.230413 c 0,-4.3991331 -3.270106,-7.9670033 -7.30235,-7.9670033 -2.881944,0 -5.352689,1.8397663 -6.540208,4.4859813 -0.875573,-0.591986 -1.898257,-0.948242 -3.002471,-0.948242 -3.1637593,0 -5.726671,2.795098 -5.726671,6.244216 0,0.372206 0.042537,0.733779 0.1010278,1.08649 -2.4406147,0.241049 -4.35127735,2.736607 -4.35127735,5.459036 0,0.02837 0.0070891,0.0514 0.0070891,0.07975 -0.001773,0.02482 -0.01594916,0.04962 -0.01594916,0.07446 0,1.090033 0.37929679,2.086131 0.99432441,2.890806 0.8720279,1.17334 2.2367871,1.896483 3.7929666,1.896483 l 2.2350145,0 C 6.6763487,26.230755 6.4069415,25.266562 6.4069415,24.233244 6.4051537,21.154562 8.5870118,18.575698 11.484909,17.962441 l 0,0 z m 20.31187,3.420759 c -0.04431,0 -0.08861,0.01241 -0.132929,0.01419 0.01241,-0.131158 0.03899,-0.258773 0.03899,-0.393477 0,-2.608992 -2.11449,-4.721711 -4.723485,-4.721711 -1.038633,0 -1.990421,0.34385 -2.772055,0.914565 -0.967739,-1.798999 -2.842954,-3.034374 -5.030112,-3.034374 -3.169078,0 -5.737307,2.56823 -5.737307,5.737306 0,0.04076 0.01063,0.0762 0.01241,0.11698 -0.209146,-0.03191 -0.418289,-0.0638 -0.636296,-0.0638 -2.366174,0 -4.2803833,1.915979 -4.2803833,4.280381 0,0.295994 0.030129,0.584897 0.086849,0.863166 0.4041075,2.146389 2.2828683,3.771693 4.5480123,3.771693 l 18.975471,0 0,-0.03367 c 1.900028,-0.180786 3.392401,-1.76178 3.392401,-3.70789 0,-2.066637 -1.674932,-3.74334 -3.741568,-3.74334 l 0,0 z"
  />
</svg>
