<?xml version="1.0" encoding="UTF-8"?>
<svg width="36" height="36" viewBox="0 0 36 36" version="1.1" xmlns="http://www.w3.org/2000/svg">
  <title>Instagram icon</title>
  <path
      d="M9.82348498,7 L26.1754159,7 C27.7283326,7 28.9989009,8.1492158 28.9989009,9.82362605 L28.9989009,26.176374 C28.9989009,27.8507842 27.7283326,29 26.1754159,29 L9.82348498,29 C8.27056824,29 7,27.8507842 7,26.176374 L7,9.82362605 C7,8.1492158 8.27056824,7 9.82348498,7 L9.82348498,7 Z M23.025536,9.44413071 C22.4806034,9.44413071 22.0350575,9.8896989 22.0350575,10.4346587 L22.0350575,12.8059399 C22.0350575,13.3508997 22.4806034,13.7964679 23.025536,13.7964679 L25.5124616,13.7964679 C26.0562648,13.7964679 26.5018107,13.3508997 26.5018107,12.8059399 L26.5018107,10.4346587 C26.5018107,9.8896989 26.0562648,9.44413071 25.5124616,9.44413071 L23.025536,9.44413071 L23.025536,9.44413071 Z M26.5128223,16.3035655 L24.576194,16.3035655 C24.7591558,16.9013271 24.8585425,17.5355135 24.8585425,18.1908771 C24.8585425,21.8505788 21.7967554,24.8176451 18.0203442,24.8176451 C14.2439331,24.8176451 11.1821459,21.8505788 11.1821459,18.1908771 C11.1821459,17.5355135 11.2815326,16.9013271 11.4644944,16.3035655 L9.44513799,16.3035655 L9.44513799,25.5972482 C9.44513799,26.0781118 9.83788475,26.4720076 10.3198536,26.4720076 L25.638389,26.4720076 C26.1203579,26.4720076 26.5128223,26.0781118 26.5128223,25.5972482 L26.5128223,16.3035655 L26.5128223,16.3035655 Z M18.0203442,13.6708165 C15.5808532,13.6708165 13.6021549,15.5877763 13.6021549,17.9525631 C13.6021549,20.3173499 15.5808532,22.2343096 18.0203442,22.2343096 C20.4601176,22.2343096 22.4388159,20.3173499 22.4388159,17.9525631 C22.4388159,15.5877763 20.461247,13.6708165 18.0203442,13.6708165 L18.0203442,13.6708165 Z"
  />
</svg>