<?xml version="1.0" encoding="UTF-8"?>
<svg width="30" height="30" viewBox="0 0 50 50" version="1.1" xmlns="http://www.w3.org/2000/svg">
  <title>Google Photos icon</title>
  <path
      d="M 24.84375 0 A 1.0001 1.0001 0 0 0 24 1 L 24 11 L 13 11 A 1.0001 1.0001 0 0 0 12.90625 11 A 1.0001 1.0001 0 0 0 12.25 11.3125 L 12.25 11.34375 A 1.0001 1.0001 0 0 0 12.1875 11.40625 L 0.25 24.3125 A 1.0001 1.0001 0 0 0 1 26 L 11 26 L 11 37 A 1.0001 1.0001 0 0 0 11.3125 37.75 L 24.3125 49.75 A 1.0001 1.0001 0 0 0 26 49 L 26 39 L 37 39 A 1.0001 1.0001 0 0 0 37.75 38.6875 L 49.75 25.6875 A 1.0001 1.0001 0 0 0 49 24 L 39 24 L 39 13 A 1.0001 1.0001 0 0 0 38.6875 12.25 L 25.6875 0.25 A 1.0001 1.0001 0 0 0 24.84375 0 z M 26 3.3125 L 36.5 13 L 27.25 22.25 C 26.481565 21.362981 26 20.21101 26 18.9375 L 26 12 A 1.0001 1.0001 0 0 0 26 11.90625 L 26 3.3125 z M 13 13.5 L 22.25 22.75 C 21.362981 23.518435 20.21101 24 18.9375 24 L 3.3125 24 L 13 13.5 z M 25 22.5625 C 25.598842 23.560026 26.440086 24.401358 27.4375 25 C 26.440086 25.598642 25.598842 26.439974 25 27.4375 C 24.401158 26.439974 23.559914 25.598642 22.5625 25 C 23.559914 24.401358 24.401158 23.560026 25 22.5625 z M 31.0625 26 L 38 26 L 46.6875 26 L 37 36.5 L 27.75 27.25 C 28.637019 26.481565 29.78899 26 31.0625 26 z M 22.75 27.75 C 23.518435 28.637019 24 29.78899 24 31.0625 L 24 38 A 1.0001 1.0001 0 0 0 24 38.09375 L 24 46.6875 L 13.5 37 L 22.75 27.75 z"
  />
</svg>