<?xml version="1.0" encoding="UTF-8"?>
<svg width="36" height="36" viewBox="0 0 36 36" version="1.1" xmlns="http://www.w3.org/2000/svg">
  <title>Facebook icon</title>
  <path
      d="M20.7917554,6 C17.3264092,6 15.0862916,8.31860386 15.0862916,11.9065255 L15.0862916,15.0722656 L11.9843999,15.0722656 C11.7174541,15.0722656 11.5,15.2904247 11.5,15.561017 L11.5,19.0655154 C11.5,19.3348592 11.7174541,19.5542667 11.9843999,19.5542667 L15.0862916,19.5542667 L15.0862916,29.5112487 C15.0862916,29.7805925 15.3037457,30 15.5719288,30 L19.6172558,30 C19.8854389,30 20.102893,29.7805925 20.102893,29.5112487 L20.102893,19.5542667 L23.7290872,19.5542667 C23.9972703,19.5542667 24.2137965,19.3348592 24.2137965,19.0655154 L24.2159617,15.561017 C24.2159617,15.4318068 24.1639954,15.3075903 24.0733638,15.2148961 C23.9827321,15.1234503 23.8596215,15.0722656 23.7303245,15.0722656 L20.102893,15.0722656 L20.102893,12.3213087 C20.102893,11.211787 20.3651989,10.6484434 21.7970554,10.6484434 L23.875397,10.647195 C24.1435801,10.647195 24.359797,10.4277875 24.359797,10.1584437 L24.359797,6.49499337 C24.359797,6.22408905 24.1435801,6.00592993 23.8766343,6.00468153 L20.7917554,6 Z"
  />
</svg>