<svg xmlns="http://www.w3.org/2000/svg" width="32" height="32" viewBox="0 0 32 32">
    <path d="M22.1422136,24.0090093 C22.0636712,25.1086031 21.0980496,26 19.9914698,26 L12.0085302,26 C10.8992496,26 9.93592428,25.1029399 9.85778638,24.0090093 L9.07191753,13.0068455 C9.03219858,12.4507801 9.44994876,12 10.0068455,12 L21.9931545,12 C22.5492199,12 22.9678608,12.4499488 22.9280825,13.0068455 L22.1422136,24.0090093 Z M13,7 L13,6 C13,5.44386482 13.4435864,5 13.990778,5 L18.009222,5 C18.5490248,5 19,5.44771525 19,6 L19,7 L23.0001925,7 C23.5562834,7 24,7.44724809 24,7.99895656 L24,9.00104344 C24,9.55733967 23.5518945,10 22.9991283,10 L9.00087166,10 C8.44463086,10 8,9.55275191 8,9.00104344 L8,7.99895656 C8,7.44266033 8.44762906,7 8.99980749,7 L13,7 Z"/>
</svg>
