<svg role="presentation" width="36" height="36" viewBox="0 0 36 36" version="1.1" xmlns="http://www.w3.org/2000/svg">
    <path d="M 33.621729,25.003191 C 33.072778,23.978828 32.023746,22.721495 30.47527,21.230834 l -0.0491,-0.05087 c -0.735955,-0.711285 -1.18099,-1.178002 -1.36736,-1.41695 -0.341002,-0.45518 -0.417397,-0.915919 -0.231027,-1.382755 0.13167,-0.352714 0.626268,-1.097596 1.482642,-2.235664 0.450459,-0.603139 0.807213,-1.086536 1.070669,-1.450728 1.900096,-2.617251 2.723869,-4.28971 2.471146,-5.0180324 L 33.75409,9.5056336 C 33.688141,9.4031644 33.517928,9.3094264 33.243683,9.2239382 32.968804,9.1386296 32.617473,9.124521 32.189055,9.1813735 l -4.744269,0.033957 c -0.07685,-0.028217 -0.1866,-0.025587 -0.32958,0.00861 -0.142805,0.034195 -0.214237,0.051353 -0.214237,0.051353 l -0.08256,0.042744 -0.06555,0.051353 c -0.05493,0.033957 -0.115341,0.093678 -0.181291,0.1790468 -0.06561,0.085069 -0.120476,0.1849053 -0.164328,0.298671 -0.516525,1.3768357 -1.103789,2.6569457 -1.762888,3.8402687 -0.406376,0.705606 -0.779576,1.317115 -1.120405,1.834886 -0.340369,0.517592 -0.625923,0.898941 -0.856374,1.143389 -0.230797,0.244687 -0.439091,0.440712 -0.626152,0.588791 -0.186773,0.14814 -0.329349,0.210731 -0.428072,0.187835 -0.09896,-0.0229 -0.192139,-0.04561 -0.280362,-0.06833 -0.153653,-0.102466 -0.277245,-0.241818 -0.370429,-0.418175 -0.09359,-0.176357 -0.156596,-0.398326 -0.189542,-0.665731 -0.03277,-0.267583 -0.05217,-0.497745 -0.0577,-0.691257 -0.0052,-0.193276 -0.0027,-0.466659 0.0084,-0.819372 0.01143,-0.352893 0.01656,-0.591661 0.01656,-0.716845 0,-0.432461 0.0082,-0.901809 0.02446,-1.408162 0.01661,-0.506352 0.03006,-0.907549 0.04131,-1.203111 0.01119,-0.29586 0.01638,-0.608878 0.01638,-0.938874 0,-0.329996 -0.01939,-0.5887927 -0.0577,-0.7766271 -0.0379,-0.1875995 -0.096,-0.3696951 -0.172562,-0.5462311 C 20.515135,9.0132049 20.402393,8.8767825 20.254452,8.7799359 20.106222,8.6832088 19.92193,8.6064488 19.702615,8.5494168 19.120486,8.4129349 18.379222,8.3391043 17.478479,8.327626 15.435864,8.3049098 14.123378,8.4415704 13.541307,8.7374309 13.310683,8.862435 13.101984,9.0332318 12.915384,9.2492836 c -0.197735,0.2504263 -0.225315,0.3870876 -0.08256,0.4095657 0.659042,0.1022869 1.125599,0.3469757 1.400191,0.7338227 l 0.09895,0.204993 c 0.07697,0.147901 0.153827,0.409745 0.230742,0.785175 0.07679,0.37543 0.12636,0.790735 0.14817,1.245675 0.05482,0.830789 0.05482,1.541955 0,2.133558 -0.05499,0.59184 -0.106916,1.052579 -0.15648,1.382575 -0.04957,0.329997 -0.12365,0.5974 -0.222432,0.802153 -0.09895,0.204813 -0.164789,0.329996 -0.197792,0.37543 -0.03295,0.04544 -0.06042,0.07407 -0.08222,0.08531 -0.142746,0.05668 -0.291208,0.08555 -0.444861,0.08555 -0.153883,0 -0.340483,-0.07975 -0.560087,-0.239128 -0.219553,-0.159384 -0.447408,-0.378304 -0.683572,-0.657127 -0.236163,-0.278883 -0.502503,-0.668601 -0.799135,-1.169215 -0.296401,-0.500612 -0.603938,-1.092274 -0.922439,-1.774983 L 10.378361,13.157527 C 10.213631,12.839009 9.9886033,12.375222 9.7030493,11.766582 9.417322,11.157703 9.1647721,10.568733 8.9452262,9.9997879 8.8574655,9.7608389 8.7256226,9.5789232 8.5499281,9.4537399 L 8.4674758,9.4023872 C 8.4126614,9.3569531 8.32467,9.308709 8.2039629,9.2572966 8.0830828,9.2059439 7.956952,9.1691183 7.8250514,9.146461 l -4.513761,0.033957 c -0.4612485,0 -0.7742096,0.1082649 -0.9389989,0.3244961 l -0.06595,0.1022868 c -0.032946,0.056972 -0.049564,0.1479596 -0.049564,0.2732024 0,0.1251837 0.032946,0.2788227 0.098897,0.4607397 0.6589264,1.604546 1.3754944,3.151999 2.149704,4.642601 0.7742096,1.490603 1.4469838,2.691322 2.0179187,3.601083 0.5710503,0.910418 1.1531211,1.769664 1.7462126,2.577317 0.5930914,0.807952 0.9856776,1.325723 1.1777587,1.553193 0.1923119,0.227889 0.3433687,0.398267 0.4531705,0.512033 l 0.411915,0.409565 c 0.263572,0.273144 0.650619,0.60027 1.161315,0.98138 0.510813,0.381348 1.076323,0.756779 1.696822,1.126889 0.620614,0.369511 1.342606,0.671052 2.166379,0.904261 0.823659,0.233448 1.625333,0.327127 2.40514,0.281931 l 1.894499,0 c 0.38422,-0.03437 0.675313,-0.159558 0.873165,-0.375609 l 0.06555,-0.08555 c 0.04408,-0.06791 0.08534,-0.173428 0.123419,-0.31541 0.03855,-0.14222 0.0577,-0.298909 0.0577,-0.469347 -0.01124,-0.489195 0.02469,-0.930087 0.106859,-1.322615 0.08211,-0.392408 0.175695,-0.68827 0.280361,-0.887522 0.104609,-0.199073 0.222662,-0.367061 0.354043,-0.503244 0.13167,-0.136482 0.225489,-0.21916 0.280535,-0.247617 0.0547,-0.02864 0.09838,-0.04806 0.131323,-0.05972 0.26357,-0.091 0.573762,-0.0028 0.931037,0.264773 0.356985,0.267405 0.691814,0.597581 1.005006,0.989989 0.313019,0.392768 0.689104,0.833419 1.128311,1.322615 0.439496,0.489375 0.823773,0.853147 1.153121,1.092454 l 0.329348,0.204814 c 0.219949,0.13666 0.505503,0.261845 0.857008,0.375609 0.350869,0.113705 0.658292,0.142162 0.922266,0.08531 l 4.217071,-0.06815 c 0.417108,0 0.741667,-0.07156 0.971887,-0.213541 0.230683,-0.142221 0.367718,-0.298909 0.411915,-0.469347 0.04408,-0.170617 0.04645,-0.364191 0.0084,-0.580602 -0.03906,-0.215873 -0.07755,-0.366821 -0.11586,-0.45213 -0.0383,-0.08555 -0.07403,-0.15651 -0.107206,-0.213362 z"/>
</svg>
