<?xml version="1.0" encoding="UTF-8"?>
<svg width="36" height="36" viewBox="0 0 36 36" version="1.1" xmlns="http://www.w3.org/2000/svg">
  <title>Huddle icon</title>
  <path
      d="M14.9094583,16.1258086 C14.9844295,16.0145141 15.0929634,15.8427776 15.1244921,15.784951 C16.7116739,12.8670296 22.5091593,12.8639784 24.2685134,16.8743587 C24.7304002,17.9272978 24.990039,19.0168507 24.9946884,20.1626321 C25.0036965,22.3145683 24.9989019,24.4666497 24.9971584,26.6187311 C24.9961413,27.9153268 24.2645905,28.7347799 23.0984681,28.7529415 C21.9276963,28.7711032 21.0996709,27.9204121 21.0899362,26.6387816 C21.0743899,24.6000288 21.0926968,22.5611307 21.0833981,20.5225232 C21.0765693,19.0533193 20.3788718,17.9258448 19.2325092,17.4851709 C17.3208879,16.7504236 15.3662598,17.8171656 15.0402221,19.8331074 C14.9088771,20.645877 14.9282011,21.4862523 14.9180306,22.314423 C14.9004501,23.7677899 14.91527,25.2215927 14.9120735,26.6751049 C14.9094583,27.899054 14.1920009,28.7052854 13.0736799,28.7500357 C11.9318214,28.7956577 11.1051037,28.0231343 11.0047061,26.814441 C10.9970056,26.7205816 11.0010738,26.6257052 11.0010738,26.53141 C11.0009285,20.7548468 10.9990397,14.978429 11.0028173,9.20201109 C11.0036891,7.89698844 11.7904512,7.01026464 12.9315833,7.00009412 C14.0623995,6.98992361 14.904373,7.80501791 14.9096036,8.94876521 C14.9199194,11.1384776 14.9129453,13.3283352 14.9149794,15.5180475 C14.9151247,15.6483755 14.916287,15.9441922 14.9094583,16.1258086"
  />
</svg>