<svg role="presentation" width="36" height="36" viewBox="0 0 36 36" version="1.1" xmlns="http://www.w3.org/2000/svg">
    <path d="m 21.620869,1.962439 c -4.851486,0 -7.987649,3.2460442 -7.987649,8.269136 l 0,4.432035 -4.3426472,0 c -0.3737239,0 -0.6781597,0.305423 -0.6781597,0.684253 l 0,4.906298 c 0,0.377081 0.3044358,0.684251 0.6781597,0.684251 l 4.3426472,0 0,13.939774 c 0,0.377082 0.304435,0.684253 0.679892,0.684253 l 5.663459,0 c 0.375455,0 0.679891,-0.307171 0.679891,-0.684253 l 0,-13.939774 5.076672,0 c 0.375455,0 0.678592,-0.30717 0.678592,-0.684251 l 0.0031,-4.906298 c 0,-0.180895 -0.07275,-0.354797 -0.199637,-0.484569 -0.126881,-0.12803 -0.29924,-0.199684 -0.480256,-0.199684 l -5.078403,0 0,-3.851339 c 0,-1.5533304 0.367229,-2.3420119 2.371827,-2.3420119 l 2.909678,-0.00168 c 0.375456,0 0.67816,-0.3071713 0.67816,-0.6842528 l 0,-5.1288297 c 0,-0.3792658 -0.302704,-0.6846898 -0.676428,-0.6864369 l -4.318831,-0.00658 z"/>
</svg>
