<?xml version="1.0" encoding="UTF-8"?>
<svg width="36" height="36" viewBox="0 0 36 36" version="1.1" xmlns="http://www.w3.org/2000/svg">
  <title>Url icon</title>
  <path
      d="M18.3168797,6.01099016 C11.5153933,6.01099016 5.99965804,11.5267254 5.99965804,18.3299216 C5.99965804,25.1314079 11.5153933,30.6471432 18.3168797,30.6471432 C25.1200758,30.6471432 30.6358111,25.1314079 30.6358111,18.3299216 C30.6358111,11.5267254 25.1200758,6.01099016 18.3168797,6.01099016 Z M25.1217855,13.0962992 L23.8616811,14.3564036 C24.9422591,15.9755609 24.7712816,18.1914298 23.3419094,19.6190922 L19.7736083,23.1873933 C18.9888214,23.97389 17.9407291,24.4064631 16.8242458,24.4064631 C15.9864559,24.4064631 15.1879908,24.1619653 14.50921,23.7088748 L13.0832573,25.1331177 C12.8678256,25.3502591 12.5840029,25.457975 12.2984704,25.457975 C12.0129379,25.457975 11.7291152,25.3502591 11.5136835,25.1331177 C11.0794006,24.6988347 11.0794006,23.9961171 11.5136835,23.5618341 L12.9379264,22.1375913 C12.4848359,21.4588104 12.2403381,20.6603454 12.2403381,19.8225554 C12.2403381,18.7060721 12.6729112,17.6579798 13.4594079,16.8714832 L17.027709,13.3048918 C18.4023684,11.9285226 20.6849185,11.7575451 22.286978,12.7885396 L23.550502,11.5250157 C23.9847849,11.0907327 24.6875026,11.0907327 25.1217855,11.5250157 C25.5560685,11.9592986 25.5560685,12.6620163 25.1217855,13.0962992 Z M20.3607451,17.3974101 C20.0752126,17.3974101 19.7913899,17.2896942 19.5759582,17.0725528 C19.1416753,16.6382698 19.1416753,15.9355522 19.5759582,15.5012692 L20.6377287,14.4377889 C20.4274264,14.3625588 20.2068653,14.307846 19.9760457,14.307846 C19.4545642,14.307846 18.9638587,14.5113093 18.5979667,14.8754914 L15.0296656,18.4437926 C14.6637736,18.8096845 14.4637299,19.2986803 14.4637299,19.8218715 C14.4637299,20.0526912 14.516733,20.2732522 14.5919631,20.4835546 L15.4895951,19.5859225 C15.9238781,19.1516396 16.6265957,19.1516396 17.0608787,19.5859225 C17.4951616,20.0202055 17.4951616,20.7246329 17.0608787,21.1572061 L16.1735053,22.0445795 C16.8625447,22.2753991 17.674688,22.1437464 18.2030086,21.6171356 L21.7713098,18.0488345 C22.1372017,17.6829426 22.3372454,17.192237 22.3372454,16.6707556 C22.3372454,16.4399359 22.2842424,16.2193749 22.2090123,16.0090725 L21.145532,17.0725528 C20.9301003,17.2896942 20.6462776,17.3974101 20.3607451,17.3974101 Z"
  />
</svg>