<?xml version="1.0" encoding="UTF-8"?>
<svg width="36" height="36" viewBox="0 0 36 36" version="1.1" xmlns="http://www.w3.org/2000/svg">
  <title>Flickr icon</title>
  <path
      d="M18,6.48 C11.6376,6.48 6.48,11.6376 6.48,18 C6.48,24.3624 11.6376,29.52 18,29.52 C24.3624,29.52 29.52,24.3624 29.52,18 C29.52,11.6376 24.3624,6.48 18,6.48 L18,6.48 Z M14.9232,20.4 C13.608,20.4 12.5448,19.326 12.5448,18 C12.5448,16.674 13.6092,15.6 14.9232,15.6 C16.236,15.6 17.3016,16.674 17.3016,18 C17.3016,19.326 16.2348,20.4 14.9232,20.4 L14.9232,20.4 Z M21.078,20.4 C19.764,20.4 18.6984,19.326 18.6984,18 C18.6984,16.674 19.764,15.6 21.078,15.6 C22.3932,15.6 23.4564,16.674 23.4564,18 C23.4564,19.326 22.392,20.4 21.078,20.4 L21.078,20.4 Z"
   />
</svg>