<svg role="presentation" width="36" height="36" viewBox="0 0 36 36" version="1.1" xmlns="http://www.w3.org/2000/svg">
    <path d="M 17.99889,2.0000002 C 9.164412,2.0000002 2,9.1644117 2,18.00111 2,26.835589 9.164412,34 17.99889,34 26.835588,34 34,26.835589 34,18.00111 34,9.1644117 26.835588,2.0000002 17.99889,2.0000002 Z m 8.83892,9.2031368 -1.636755,1.636754 c 1.403567,2.103131 1.181484,4.981332 -0.675134,6.835728 L 19.89104,24.3105 c -1.019363,1.021584 -2.380734,1.583455 -3.830939,1.583455 -1.088209,0 -2.125338,-0.31758 -3.00701,-0.9061 l -1.852175,1.849955 c -0.279826,0.282046 -0.648483,0.421959 -1.019363,0.421959 -0.370879,0 -0.739538,-0.139913 -1.019363,-0.421959 -0.5640913,-0.564092 -0.5640913,-1.476854 0,-2.040947 l 1.849955,-1.849954 c -0.588522,-0.881672 -0.906099,-1.918801 -0.906099,-3.00701 0,-1.450205 0.56187,-2.811576 1.583454,-3.83316 l 4.634881,-4.63266 c 1.785551,-1.7877718 4.750364,-2.009855 6.831285,-0.670692 l 1.641197,-1.6411961 c 0.564092,-0.5640928 1.476855,-0.5640928 2.040947,0 0.564091,0.5640918 0.564091,1.4768541 0,2.0409461 z m -6.184135,5.586731 c -0.370879,0 -0.739538,-0.139914 -1.019364,-0.421959 -0.56409,-0.564092 -0.56409,-1.476855 0,-2.040946 l 1.379139,-1.38136 c -0.273163,-0.09772 -0.559651,-0.168783 -0.859463,-0.168783 -0.677354,0 -1.314734,0.26428 -1.789992,0.737317 l -4.634881,4.634881 c -0.475259,0.475258 -0.735096,1.110418 -0.735096,1.789993 0,0.299812 0.06884,0.5863 0.166562,0.859463 l 1.165938,-1.165939 c 0.564092,-0.564091 1.476855,-0.564091 2.040947,0 0.564091,0.564092 0.564091,1.479076 0,2.040947 l -1.152614,1.152613 c 0.894996,0.299812 1.949892,0.128808 2.636131,-0.555209 l 4.634881,-4.634881 c 0.475259,-0.475258 0.735096,-1.112638 0.735096,-1.789992 0,-0.299812 -0.06884,-0.5863 -0.166562,-0.859463 l -1.38136,1.381359 c -0.279824,0.282045 -0.648483,0.421959 -1.019362,0.421959 z"/>
</svg>
