<?xml version="1.0" encoding="UTF-8"?>
<svg width="36" height="36" viewBox="0 0 36 36" version="1.1" xmlns="http://www.w3.org/2000/svg">
  <title>Evernote icon</title>
  <path
      d="M8.33968017,9.41146988 L10.9691568,9.41146988 C11.1194421,9.41146988 11.2409934,9.28934882 11.2412001,9.14020435 C11.2412001,9.13937921 11.2091585,6.89148532 11.2091585,6.2668526 L11.2091585,6.25922004 C11.2091585,5.74618782 11.3170663,5.29875441 11.5053881,4.92372724 L11.5948978,4.75519192 C11.585182,4.75704849 11.5752594,4.76158678 11.5649234,4.77148848 L6.45914962,9.82424731 C6.44922706,9.83229245 6.44323219,9.84281301 6.44013139,9.85395244 C6.54576524,9.80176219 6.69026242,9.73038738 6.71052097,9.7215171 C7.15476194,9.52121381 7.69409405,9.41146988 8.33968017,9.41146988 M28.7867548,8.86130626 C28.5779678,7.74633273 27.9135701,7.19699425 27.3126355,6.98060069 C26.6649822,6.74708542 25.3506573,6.50511244 23.700206,6.31079143 C22.3720309,6.15463325 20.8104691,6.16721667 19.8676198,6.19630294 C19.754544,5.42273204 19.2108708,4.71579138 18.6022876,4.4709304 C16.9818106,3.82030571 14.4767793,3.97790788 13.8340873,4.15717005 C13.3228691,4.30012595 12.7572835,4.59181375 12.4426559,5.04172258 C12.2318017,5.34269324 12.0949531,5.7278284 12.0939195,6.26582118 C12.0939195,6.57029868 12.102395,7.28755362 12.1102504,7.92518233 C12.1176923,8.56404875 12.1265813,9.13628493 12.1265813,9.14020435 C12.1261678,9.70934625 11.6635288,10.1724574 11.0909148,10.1732825 L8.46267849,10.1732825 C7.90226095,10.1732825 7.47373068,10.2671424 7.14649315,10.4156681 C6.81884217,10.5639874 6.58669577,10.7642907 6.41057045,11.0011065 C6.05956013,11.4712313 5.99857777,12.0513064 6.00002481,12.6439648 C6.00002481,12.6439648 6.00519281,13.1277045 6.12178281,14.0644473 C6.21914786,14.7889222 7.00675052,19.851789 7.75486969,21.3915045 C8.04489765,21.9901453 8.23818072,22.2403697 8.80769393,22.5040026 C10.0773673,23.0465337 12.9772335,23.6501253 14.33683,23.8229926 C15.6933257,23.9962725 16.5450115,24.3597477 17.0523021,23.2984084 C17.0539558,23.2951078 17.1542149,23.0347754 17.2914769,22.6498465 C17.7322037,21.3180669 17.7935995,20.1362568 17.7935995,19.2807906 C17.7935995,19.193738 17.9213523,19.1898186 17.9213523,19.2807906 C17.9213523,19.8847947 17.8057959,22.0219133 19.4233788,22.5951809 C20.0623499,22.820651 21.3870108,23.0226046 22.7333772,23.1800005 C23.950337,23.3198621 24.833651,23.7976195 24.833651,26.9139756 C24.833651,28.8101526 24.4346816,29.0696599 22.3486715,29.0696599 C20.6574964,29.0696599 20.0127371,29.1129798 20.0127371,27.773155 C20.0127371,26.6891243 21.0870603,26.802994 21.882725,26.802994 C22.2382831,26.802994 21.98009,26.539361 21.98009,25.8705832 C21.98009,25.2051059 22.3972507,24.8207959 22.0028292,24.8113068 C19.250561,24.7353937 17.6311177,24.8080062 17.6311177,28.2432799 C17.6311177,31.3612863 18.8265786,31.9401236 22.7333772,31.9401236 C25.7961386,31.9401236 26.8750096,31.8400751 28.1399284,27.9247749 C28.3902661,27.1516166 28.9957486,24.7931536 29.3618495,20.8320581 C29.5933757,18.3279575 29.1433466,10.7690352 28.7867548,8.86130626 M23.4475943,17.215872 C23.069297,17.2026697 22.70547,17.2263925 22.3658293,17.2810582 C22.4615406,16.511613 22.7798892,15.5666188 23.9079594,15.6060194 C25.1565474,15.649133 25.3312257,16.8268174 25.3355668,17.6241111 C24.8094647,17.3901833 24.157677,17.2408325 23.4475943,17.215872"
  />
</svg>