<svg xmlns="http://www.w3.org/2000/svg" width="32" height="32" viewBox="0 0 32 32">
    <path d="M11.0597978,4 L15.999885,8.43283905 L8.88166004,13.1587441 L4,8.95590614 L11.0597978,4 Z M4,17.3618293 L8.88166004,13.1587441 L15.999885,17.8844018 L11.0597978,22.3177354 L4,17.3618293 Z M15.999885,17.8844018 L23.11834,13.1587441 L28,17.3618293 L20.9402022,22.3177354 L15.999885,17.8844018 Z M28,8.95590614 L23.11834,13.1587441 L15.999885,8.43283905 L20.9402022,4 L28,8.95590614 Z M16.0143768,18.8382882 L20.9689558,23.2585143 L23.0891264,21.7701844 L23.0891264,23.4385582 L16.0143768,28 L8.93985719,23.4385582 L8.93985719,21.7701844 L11.0597978,23.2585143 L16.0143768,18.8382882 Z"/>
</svg>
