<?xml version="1.0" encoding="UTF-8"?>
<svg width="36" height="36" viewBox="0 0 36 36" version="1.1" xmlns="http://www.w3.org/2000/svg">
  <title>box icon</title>
  <path
      d="M6.02783726,9 C5.4111349,9 5,9.4111349 5,10.0278373 L5,18.8608137 C5,21.6359743 7.3640257,24 10.1391863,24 C12.0920771,24 13.8394004,22.882227 14.764454,21.2376874 C15.6895075,22.882227 17.3340471,24 19.3897216,24 C22.267666,24 24.5289079,21.6359743 24.5289079,18.8608137 C24.5289079,15.9828694 22.267666,13.6252677 19.3897216,13.6252677 C17.4368308,13.6252677 15.6895075,14.7430407 14.764454,16.3875803 C13.9421842,14.7430407 12.1948608,13.6252677 10.1391863,13.6252677 C9.00856531,13.6252677 7.87794433,14.0364026 7.05567452,14.6531049 L7.05567452,10.0278373 C7.05567452,9.51391863 6.54175589,9 6.02783726,9 L6.02783726,9 Z M24.2719486,13.5610278 C24.1418635,13.5883298 24.0214133,13.6445396 23.9186296,13.7216274 C23.5074946,14.0299786 23.385439,14.7558887 23.6937901,15.1670236 L26.391863,18.764454 L23.6937901,22.3618844 C23.385439,22.7730193 23.5074946,23.4989293 23.9186296,23.8072805 C24.3297645,24.1156317 25.0556745,23.993576 25.3640257,23.5824411 L27.6124197,20.4989293 L29.8608137,23.5824411 C30.1691649,23.993576 30.8950749,24.1156317 31.3062099,23.8072805 C31.7173448,23.4989293 31.8394004,22.7730193 31.5310493,22.3618844 L28.8329764,18.764454 L31.5310493,15.1670236 C31.8394004,14.7558887 31.7173448,14.0299786 31.3062099,13.7216274 C30.8950749,13.4132762 30.1691649,13.503212 29.8608137,13.9143469 L27.6124197,16.9978587 L25.3640257,13.9143469 C25.1327623,13.6059957 24.6622051,13.4791221 24.2719486,13.5610278 L24.2719486,13.5610278 Z M10.1391863,15.7773019 C11.7837259,15.7773019 13.2226981,17.2162741 13.2226981,18.8608137 C13.3254818,20.5053533 11.8865096,21.9443255 10.1391863,21.9443255 C8.39186296,21.9443255 7.05567452,20.5053533 7.05567452,18.8608137 C7.05567452,17.1134904 8.49464668,15.7773019 10.1391863,15.7773019 L10.1391863,15.7773019 Z M19.3897216,15.7773019 C21.137045,15.7773019 22.4732334,17.2162741 22.4732334,18.8608137 C22.4732334,20.5053533 21.0342612,21.9443255 19.3897216,21.9443255 C17.6423983,21.9443255 16.3062099,20.5053533 16.3062099,18.8608137 C16.3062099,17.1134904 17.745182,15.7773019 19.3897216,15.7773019 L19.3897216,15.7773019 Z"
  />
</svg>