<svg role="presentation" width="36" height="36" viewBox="0 0 36 36" version="1.1" xmlns="http://www.w3.org/2000/svg">
    <path d="m 14.360029,14.996683 c 0.109674,-0.162813 0.268448,-0.414045 0.314571,-0.498641 2.321884,-4.268619 10.803011,-4.273083 13.376767,1.593693 0.675694,1.540342 1.055518,3.134246 1.062319,4.810407 0.01317,3.148062 0.0061,6.296338 0.0036,9.444613 -0.0015,1.896785 -1.071673,3.095561 -2.77759,3.12213 -1.712719,0.02657 -2.924036,-1.217905 -2.938277,-3.092799 -0.02274,-2.982488 0.004,-5.965186 -0.0096,-8.94746 -0.01,-2.149294 -1.030649,-3.798674 -2.70766,-4.443336 -2.796506,-1.074859 -5.655927,0.485675 -6.132886,3.434792 -0.192145,1.188997 -0.163876,2.41838 -0.178754,3.629908 -0.02572,2.126129 -0.004,4.252893 -0.0087,6.379233 -0.0038,1.790512 -1.053392,2.969947 -2.68938,3.035412 -1.670423,0.06675 -2.8798256,-1.063384 -3.0266969,-2.831578 -0.011271,-0.137306 -0.00534,-0.276101 -0.00534,-0.414046 -2.124e-4,-8.45052 -0.00299,-16.900827 0.00252,-25.3511339 0.00132,-1.9091146 1.1522285,-3.2063008 2.8215879,-3.2211792 1.654267,-0.014878 2.885988,1.1775211 2.893641,2.8507063 0.01508,3.2033248 0.0049,6.4068618 0.0079,9.6101868 2.12e-4,0.190655 0.0019,0.623405 -0.0081,0.889092"/>
</svg>
