<?xml version="1.0" encoding="UTF-8"?>
<svg width="36" height="36" viewBox="0 0 36 36" version="1.1" xmlns="http://www.w3.org/2000/svg">
  <title>Dropbox icon</title>
  <path
      d="M12.4352625,6.16980589 L4.23486208,11.3176731 L9.90521815,15.6833028 L18.1734854,10.7743456 L12.4352625,6.16980589 Z M4.23486208,20.0491895 L12.4352625,25.1970567 L18.1734854,20.5920032 L9.90521815,15.6833028 L4.23486208,20.0491895 Z M18.1734854,20.5920032 L23.9119756,25.1970567 L32.112376,20.0491895 L26.4420199,15.6833028 L18.1734854,20.5920032 Z M32.112376,11.3176731 L23.9119756,6.16980589 L18.1734854,10.7743456 L26.4420199,15.6833028 L32.112376,11.3176731 Z M18.1903186,21.5828372 L12.4352625,26.1742754 L9.97281781,24.6282969 L9.97281781,26.3612931 L18.1903186,31.0994169 L26.4080865,26.3612931 L26.4080865,24.6282969 L23.9453746,26.1742754 L18.1903186,21.5828372 Z"
  />
</svg>