<?xml version="1.0" encoding="UTF-8"?>
<svg width="36" height="36" viewBox="0 0 36 36" version="1.1" xmlns="http://www.w3.org/2000/svg">
  <title>VK icon</title>
  <path
      d="M31.2149815,24.4712866 C30.7386631,23.5824596 29.8284314,22.4914874 28.4848371,21.1980588 L28.4422318,21.1539157 C27.8036528,20.5367425 27.4175015,20.1317777 27.2557915,19.9244453 C26.9599074,19.5294917 26.8936213,19.1297141 27.0553313,18.7246456 C27.1695796,18.4186007 27.5987367,17.7722754 28.3418014,16.7847879 C28.7326588,16.2614512 29.0422107,15.8420141 29.2708075,15.5260098 C30.9194979,13.255053 31.6342758,11.8038816 31.4149911,11.1719249 L31.3298306,11.0242453 C31.2726063,10.9353366 31.1249146,10.8540013 30.8869556,10.7798243 C30.648446,10.705803 30.3436002,10.6935612 29.9718676,10.7428915 L25.8553234,10.7723548 C25.7886368,10.7478712 25.6934132,10.7501535 25.5693521,10.7798243 C25.4454413,10.8094951 25.3834608,10.8243824 25.3834608,10.8243824 L25.3118178,10.8614709 L25.2549439,10.9060289 C25.2072821,10.9354922 25.154864,10.9873124 25.0976397,11.0613856 C25.0407158,11.1351995 24.993104,11.2218258 24.9550546,11.3205382 C24.5068728,12.5152025 23.9973112,13.6259379 23.4254188,14.6526926 C23.072811,15.2649379 22.7489906,15.7955368 22.4532567,16.2448003 C22.1579233,16.6939082 21.9101516,17.0247997 21.710192,17.2369044 C21.509932,17.4492165 21.3291974,17.6193049 21.1668867,17.7477918 C21.0048263,17.8763307 20.8811157,17.9306407 20.7954545,17.9107737 C20.709593,17.8909067 20.628738,17.8711954 20.5521887,17.851484 C20.4188656,17.7625754 20.3116263,17.6416617 20.2307714,17.4886393 C20.149566,17.3356168 20.094895,17.143016 20.0663079,16.9109925 C20.0378709,16.6788134 20.0210491,16.4791061 20.0162429,16.3111964 C20.0117871,16.1434942 20.0138397,15.9062835 20.0235023,15.6002386 C20.0334152,15.2940381 20.0378709,15.0868613 20.0378709,14.9782413 C20.0378709,14.6029992 20.0449301,14.195752 20.0590985,13.7563961 C20.0735172,13.3170401 20.0851824,12.968927 20.094945,12.7124718 C20.1046577,12.4557572 20.1091635,12.1841553 20.1091635,11.8978218 C20.1091635,11.6114883 20.0923417,11.3869344 20.0590985,11.2239525 C20.0262559,11.0611781 19.9758404,10.903176 19.9094042,10.7499979 C19.8425674,10.5969755 19.7447404,10.4786035 19.6163737,10.3945709 C19.4877568,10.310642 19.3278492,10.2440383 19.1375521,10.1945524 C18.6324464,10.0761286 17.9892614,10.0120667 17.2076967,10.0021072 C15.4353458,9.98239587 14.2965173,10.1009753 13.7914616,10.3576899 C13.5913518,10.4661543 13.4102668,10.6143526 13.2483566,10.8018181 C13.0767838,11.0191099 13.0528527,11.1376893 13.1767135,11.1571932 C13.7485559,11.2459462 14.1533815,11.4582584 14.3916408,11.7939222 L14.4775023,11.9717913 C14.544289,12.1001227 14.6109756,12.3273221 14.6777122,12.6530783 C14.7443487,12.9788346 14.7873545,13.3391895 14.8062791,13.7339355 C14.8538409,14.4548008 14.8538409,15.0718703 14.8062791,15.5851957 C14.7585672,16.0987287 14.7135087,16.4985063 14.6705028,16.7848398 C14.627497,17.0711733 14.5632135,17.3031968 14.4775023,17.4808585 C14.3916408,17.658572 14.3345166,17.767192 14.3058795,17.8066147 C14.2772924,17.8460374 14.2534614,17.8708841 14.2345368,17.8806361 C14.110676,17.9298107 13.9818588,17.9548649 13.8485357,17.9548649 C13.7150124,17.9548649 13.5531022,17.8856677 13.3625548,17.7473769 C13.1720575,17.6090861 12.9743508,17.4191308 12.7694348,17.1771997 C12.5645188,16.9352168 12.3334187,16.5970631 12.0760346,16.1626869 C11.8188507,15.7283106 11.5520043,15.2149333 11.2756455,14.6225549 L11.0469987,14.1929509 C10.9040631,13.9165768 10.7088096,13.5141538 10.461038,12.9860448 C10.2131161,12.4577283 9.9939816,11.9466853 9.80348429,11.4530193 C9.72733544,11.2456869 9.61293692,11.0878403 9.46048901,10.9792203 L9.38894613,10.9346623 C9.34138438,10.8952396 9.26503526,10.8533788 9.16029929,10.8087689 C9.05541312,10.7642109 8.94597104,10.7322577 8.83152246,10.7125982 L4.91498787,10.7420615 C4.51476829,10.7420615 4.24321575,10.8360017 4.10023012,11.0236228 L4.04300583,11.1123758 C4.01441872,11.1618098 4,11.240759 4,11.3494309 C4,11.4580509 4.02858711,11.591362 4.0858114,11.7492085 C4.65755366,13.1414533 5.27931085,14.4841604 5.95108297,15.7775372 C6.62285509,17.0709139 7.20661294,18.1127633 7.70200608,18.9021516 C8.19749935,19.6921105 8.70255503,20.4376669 9.21717312,21.1384578 C9.73179122,21.8395081 10.0724335,22.2887716 10.2390998,22.4861446 C10.4059665,22.6838807 10.5370366,22.831716 10.6323103,22.9304284 L10.9897243,23.2858036 C11.2184212,23.5228068 11.5542572,23.8066505 11.9973825,24.1373345 C12.4406079,24.4682261 12.9312949,24.7939823 13.4696939,25.115122 C14.008193,25.4357429 14.6346563,25.6973853 15.3494342,25.899738 C16.0641121,26.1022983 16.7597151,26.1835817 17.4363435,26.1443665 L19.0801776,26.1443665 C19.4135604,26.1145401 19.6661384,26.0059201 19.8378112,25.8184546 L19.8946851,25.7442258 C19.9329347,25.6852991 19.9687312,25.593745 20.0017741,25.470549 C20.0352175,25.3471455 20.0518391,25.2111889 20.0518391,25.0633018 C20.0420764,24.6388332 20.0732669,24.2562771 20.1445595,23.9156854 C20.2158019,23.5751975 20.2970074,23.3184829 20.3878253,23.1455935 C20.4785931,22.9728597 20.5810261,22.8270994 20.6950241,22.7089349 C20.8092724,22.5905111 20.8906781,22.5187721 20.9384401,22.494081 C20.9859017,22.4692343 21.0238009,22.4523759 21.052388,22.4422609 C21.2810849,22.3633117 21.5502344,22.439771 21.8602368,22.672002 C22.1699889,22.9040256 22.4605161,23.1905147 22.7322689,23.5310026 C23.0038715,23.8718017 23.3301952,24.2541503 23.7112899,24.678619 C24.092635,25.1032433 24.4260679,25.4188845 24.7118389,25.6265282 L24.9976099,25.8042417 C25.1884576,25.9228211 25.4362293,26.0314411 25.7412252,26.1301535 C26.0456705,26.2288141 26.3124168,26.2535052 26.5414641,26.2041749 L30.2005645,26.1450408 C30.5624844,26.1450408 30.8441,26.08295 31.0438593,25.959754 C31.2440192,25.8363504 31.3629235,25.7003939 31.4012733,25.5525068 C31.439523,25.4044641 31.4415757,25.2365025 31.4085328,25.0487258 C31.3746388,24.861416 31.3412454,24.7304391 31.3080022,24.6564178 C31.2747591,24.5821889 31.2437689,24.5206168 31.2149815,24.4712866 Z"
  />
</svg>