<svg xmlns="http://www.w3.org/2000/svg" width="32" height="32" viewBox="0 0 32 32">
  <path d="M10.0606602,7.93933983 C9.47487373,7.35355339 8.52512627,7.35355339 7.93933983,7.93933983 C7.35355339,8.52512627 7.35355339,9.47487373 7.93933983,10.0606602 L13.8786797,16 L7.93933983,21.9393398 C7.35355339,22.5251263 7.35355339,23.4748737 7.93933983,24.0606602 C8.52512627,24.6464466 9.47487373,24.6464466 10.0606602,24.0606602 L16,18.1213203 L21.9393398,24.0606602 C22.5251263,24.6464466 23.4748737,24.6464466 24.0606602,24.0606602 C24.6464466,23.4748737 24.6464466,22.5251263 24.0606602,21.9393398 L18.1213203,16 L24.0606602,10.0606602 C24.6464466,9.47487373 24.6464466,8.52512627 24.0606602,7.93933983 C23.4748737,7.35355339 22.5251263,7.35355339 21.9393398,7.93933983 L16,13.8786797 L10.0606602,7.93933983 Z"/>
</svg>
