<svg xmlns="http://www.w3.org/2000/svg" width="32" height="32" viewBox="0 0 32 32">
  <path d="M21,16 C21,14.3431458 22.3431458,13 24,13 C25.6568542,13 27,14.3431458 27,16 C27,17.6568542 25.6568542,19 24,19 C22.3431458,19 21,17.6568542 21,16 Z M13,16 C13,14.3431458 14.3431458,13 16,13 C17.6568542,13 19,14.3431458 19,16 C19,17.6568542 17.6568542,19 16,19 C14.3431458,19 13,17.6568542 13,16 Z M5,16 C5,14.3431458 6.34314575,13 8,13 C9.65685425,13 11,14.3431458 11,16 C11,17.6568542 9.65685425,19 8,19 C6.34314575,19 5,17.6568542 5,16 Z"/>
</svg>
