<svg xmlns="http://www.w3.org/2000/svg" width="32" height="32" viewBox="0 0 32 32">
    <path d="M8,11.9999788 C6.8929208,11.9949786 6,11.1041558 6,9.9906311 L6,8.0093689 C6,6.89796285 6.89270473,6 8.0093689,6 L9.9906311,6 C11.0989271,6 11.9949728,6.88771567 11.9999789,8 L20.0000196,8 C20.0050214,6.8929208 20.8958442,6 22.0093689,6 L23.9906311,6 C25.1020372,6 26,6.89270473 26,8.0093689 L26,9.9906311 C26,11.0989271 25.1122843,11.9949728 24,11.9999789 L24,20.0000196 C25.1070792,20.0050214 26,20.8958442 26,22.0093689 L26,23.9906311 C26,25.1020372 25.1072953,26 23.9906311,26 L22.0093689,26 C20.9010729,26 20.0050272,25.1122843 20.0000211,24 L11.9999804,24 C11.9949786,25.1070792 11.1041558,26 9.9906311,26 L8.0093689,26 C6.89796285,26 6,25.1072953 6,23.9906311 L6,22.0093689 C6,20.9010729 6.88771567,20.0050272 8,20.0000211 L8,11.9999804 L8,11.9999788 Z M10,11.9999805 L10,20.0000197 C11.1039726,20.0050073 11.994987,20.8908516 11.9999789,22 L20.0000197,22 C20.0050073,20.8960274 20.8908516,20.005013 22,20.0000211 L22,11.9999803 C20.8960274,11.9949927 20.005013,11.1091484 20.0000211,10 L11.9999804,10 C11.9949927,11.1039726 11.1091484,11.994987 10,11.9999789 L10,11.9999805 Z M22,22.0093689 L22,23.9906311 C22,24.0000879 21.9999116,24 22.0093689,24 L23.9906311,24 C24.0000879,24 24,24.0000884 24,23.9906311 L24,22.0093689 C24,21.9999121 24.0000884,22 23.9906311,22 L22.0093689,22 C21.9999121,22 22,21.9999116 22,22.0093689 Z M22,8.0093689 L22,9.9906311 C22,10.0000879 21.9999116,10 22.0093689,10 L23.9906311,10 C24.0000879,10 24,10.0000884 24,9.9906311 L24,8.0093689 C24,7.99991209 24.0000884,8 23.9906311,8 L22.0093689,8 C21.9999121,8 22,7.99991157 22,8.0093689 Z M8,22.0093689 L8,23.9906311 C8,24.0000879 7.99991157,24 8.0093689,24 L9.9906311,24 C10.0000879,24 10,24.0000884 10,23.9906311 L10,22.0093689 C10,21.9999121 10.0000884,22 9.9906311,22 L8.0093689,22 C7.99991209,22 8,21.9999116 8,22.0093689 Z M8,8.0093689 L8,9.9906311 C8,10.0000879 7.99991157,10 8.0093689,10 L9.9906311,10 C10.0000879,10 10,10.0000884 10,9.9906311 L10,8.0093689 C10,7.99991209 10.0000884,8 9.9906311,8 L8.0093689,8 C7.99991209,8 8,7.99991157 8,8.0093689 Z"/>
</svg>
