<svg role="presentation" width="36" height="36" viewBox="0 0 60 60" version="1.1" xmlns="http://www.w3.org/2000/svg">
    <path d="M 29.788726,0.04073825 A 1.1989712,1.1992097 0 0 0 28.777195,1.2398286 l 0,11.9908984 -13.187365,0 a 1.1989712,1.1992097 0 0 0 -0.112392,0 1.1989712,1.1992097 0 0 0 -0.786746,0.374715 l 0,0.03747 a 1.1989712,1.1992097 0 0 0 -0.07493,0.07494 L 0.30447584,29.19361 a 1.1989712,1.1992097 0 0 0 0.89913846,2.023465 l 11.9885137,0 0,13.189988 a 1.1989712,1.1992097 0 0 0 0.374641,0.899317 l 15.585067,14.389079 a 1.1989712,1.1992097 0 0 0 2.023062,-0.899317 l 0,-11.990899 13.187364,0 a 1.1989712,1.1992097 0 0 0 0.899139,-0.374716 L 59.647617,30.842359 a 1.1989712,1.1992097 0 0 0 -0.899139,-2.023464 l -11.988513,0 0,-13.189988 A 1.1989712,1.1992097 0 0 0 46.385324,14.729589 L 30.800257,0.34051119 A 1.1989712,1.1992097 0 0 0 29.788726,0.04073825 Z M 31.174898,4.0127239 43.762836,15.628907 32.673462,26.720488 c -0.92124,-1.063615 -1.498564,-2.444932 -1.498564,-3.971985 l 0,-8.318686 a 1.1989712,1.1992097 0 0 0 0,-0.112415 l 0,-10.3046781 z M 15.58983,16.228452 26.679205,27.320033 c -1.063404,0.921423 -2.444446,1.498862 -3.971195,1.498862 l -18.732052,0 11.613872,-12.590443 z m 14.386216,10.866752 c 0.717923,1.196123 1.726449,2.204955 2.9222,2.922781 -1.195751,0.717826 -2.204277,1.726659 -2.9222,2.922782 -0.717922,-1.196123 -1.726449,-2.204956 -2.9222,-2.922782 1.195751,-0.717826 2.204278,-1.726658 2.9222,-2.922781 z m 7.268036,4.121871 8.317031,0 10.415021,0 L 44.362262,43.807518 33.272887,32.715937 c 1.063404,-0.921422 2.444446,-1.498862 3.971195,-1.498862 z m -9.965451,2.098407 c 0.921239,1.063616 1.498564,2.444933 1.498564,3.971985 l 0,8.318686 a 1.1989712,1.1992097 0 0 0 0,0.112414 l 0,10.304679 L 16.189256,44.407063 27.278631,33.315482 Z"/>
</svg>
