<?xml version="1.0" encoding="UTF-8"?>
<svg width="36" height="36" viewBox="0 0 36 36" version="1.1" xmlns="http://www.w3.org/2000/svg">
  <title>Evernote icon</title>
  <path
     d="m 6.8726869,7.1094714 3.1056669,0 c 0.1775012,0 0.3210652,-0.1442368 0.3213092,-0.3203909 0,-9.747e-4 -0.03784,-2.6559556 -0.03784,-3.3937075 l 0,-0.00902 c 0,-0.605941 0.12745,-1.1344033 0.349877,-1.5773468 l 0.10572,-0.1990565 c -0.01147,0.00219 -0.0232,0.00756 -0.03539,0.019247 L 4.651597,7.5969986 c -0.011718,0.00951 -0.0188,0.021928 -0.022462,0.035084 C 4.7538991,7.5704446 4.9245643,7.486144 4.9484917,7.4756673 5.4731834,7.2390897 6.110187,7.1094714 6.8726869,7.1094714 M 31.022667,6.4596748 C 30.776069,5.1427828 29.991351,4.4939606 29.28159,4.2383789 28.516647,3.9625746 26.964302,3.6767811 25.014959,3.4472691 23.446254,3.2628311 21.601899,3.2776933 20.488301,3.312047 20.354747,2.3983846 19.712618,1.5634191 18.993821,1.2742145 17.079881,0.50576343 14.121196,0.69190681 13.362114,0.90363302 12.758315,1.0724778 12.090304,1.4169893 11.718699,1.9483753 11.469659,2.303851 11.308028,2.758733 11.306807,3.3941547 c 0,0.3596176 0.01,1.2067654 0.01929,1.9598667 0.0088,0.7545633 0.01928,1.4304299 0.01928,1.4350591 -4.87e-4,0.6722118 -0.546909,1.2191912 -1.223221,1.2201656 l -3.104202,0 c -0.6619086,0 -1.1680445,0.1108577 -1.5545438,0.286281 C 5.0764315,8.4707065 4.8022441,8.7072843 4.594223,8.9869871 4.1796457,9.5422488 4.1076196,10.227376 4.1093287,10.927362 c 0,0 0.00611,0.571343 0.143808,1.677728 0.1149977,0.855675 1.0452329,6.835413 1.9288343,8.653965 0.3425512,0.707053 0.5708373,1.002594 1.2434877,1.313969 1.4996077,0.640782 4.9246303,1.353683 6.5304453,1.557855 1.602153,0.204661 2.608077,0.63396 3.207236,-0.619584 0.002,-0.0038 0.12037,-0.311376 0.282488,-0.766015 0.520542,-1.572961 0.593057,-2.968793 0.593057,-3.979183 0,-0.102816 0.150888,-0.107448 0.150888,0 0,0.713389 -0.136484,3.237533 1.77404,3.914618 0.754686,0.266302 2.31924,0.504828 3.909429,0.690728 1.437347,0.16519 2.480628,0.729468 2.480628,4.410187 0,2.239571 -0.471223,2.546073 -2.935003,2.546073 -1.997442,0 -2.758965,0.05116 -2.758965,-1.531297 0,-1.280347 1.26888,-1.145855 2.208638,-1.145855 0.419948,0 0.114997,-0.311376 0.114997,-1.101269 0,-0.785993 0.492707,-1.2399 0.02686,-1.251107 -3.250697,-0.08966 -5.163417,-0.0038 -5.163417,4.053493 0,3.682669 1.411956,4.366332 6.026265,4.366332 3.617417,0 4.89167,-0.118168 6.385661,-4.742517 0.295673,-0.913175 1.010808,-3.698748 1.443208,-8.377188 C 31.97536,17.640709 31.443831,8.712888 31.022662,6.4596748 m -6.306067,9.8675532 c -0.446807,-0.0156 -0.876522,0.01243 -1.27767,0.07699 0.113044,-0.908789 0.489045,-2.024919 1.821406,-1.978383 1.474704,0.05092 1.681015,1.44188 1.686143,2.383562 -0.621379,-0.276291 -1.391203,-0.45269 -2.229879,-0.48217"
  />
</svg>
