<svg role="presentation" width="36" height="36" viewBox="0 0 36 36" version="1.1" xmlns="http://www.w3.org/2000/svg">
    <path d="M 11.042548,5.7741743 1.1,12.01569 7.975005,17.308784 17.999837,11.356935 11.042548,5.7741743 Z M 1.1,22.602188 11.042548,28.843702 17.999837,23.26032 7.975005,17.308784 1.1,22.602188 Z M 17.999837,23.26032 24.957452,28.843702 34.9,22.602188 28.024996,17.308784 17.999837,23.26032 Z M 34.9,12.01569 24.957452,5.7741743 17.999837,11.356935 28.024996,17.308784 34.9,12.01569 Z m -16.879752,12.445964 -6.9777,5.566873 -2.9855823,-1.874415 0,2.101166 L 18.020248,36 l 9.963606,-5.744722 0,-2.101166 -2.985908,1.874415 -6.977698,-5.566873 z"/>
</svg>
