<?xml version="1.0" encoding="UTF-8"?>
<svg width="36" height="36" viewBox="0 0 36 36" version="1.1" xmlns="http://www.w3.org/2000/svg">
  <title>OneDrive icon</title>
  <path
      d="M14.3577,17.9011 C14.9908,15.3518 17.2814,13.4889 20.001,13.4889 C21.6078,13.4889 23.1132,14.1454 24.2026,15.2855 C24.6628,15.1373 25.201,15.0229 25.6794,15.0125 L25.6794,14.8435 C25.6794,11.6169 23.2809,9 20.3234,9 C18.2096,9 16.3974,10.3494 15.5264,12.2903 C14.8842,11.8561 14.1341,11.5948 13.3242,11.5948 C11.0037,11.5948 9.1239,13.6449 9.1239,16.1747 C9.1239,16.4477 9.1551,16.7129 9.198,16.9716 C7.4079,17.1484 6.0065,18.9788 6.0065,20.9756 C6.0065,20.9964 6.0117,21.0133 6.0117,21.0341 C6.0104,21.0523 6,21.0705 6,21.0887 C6,21.8882 6.2782,22.6188 6.7293,23.209 C7.3689,24.0696 8.3699,24.6 9.5113,24.6 L11.1506,24.6 C10.8308,23.9656 10.6332,23.2584 10.6332,22.5005 C10.6319,20.2424 12.2322,18.3509 14.3577,17.9011 L14.3577,17.9011 Z M29.2557,20.4101 C29.2232,20.4101 29.1907,20.4192 29.1582,20.4205 C29.1673,20.3243 29.1868,20.2307 29.1868,20.1319 C29.1868,18.2183 27.6359,16.6687 25.7223,16.6687 C24.9605,16.6687 24.2624,16.9209 23.6891,17.3395 C22.9793,16.02 21.6039,15.1139 19.9997,15.1139 C17.6753,15.1139 15.7916,16.9976 15.7916,19.322 C15.7916,19.3519 15.7994,19.3779 15.8007,19.4078 C15.6473,19.3844 15.4939,19.361 15.334,19.361 C13.5985,19.361 12.1945,20.7663 12.1945,22.5005 C12.1945,22.7176 12.2166,22.9295 12.2582,23.1336 C12.5546,24.7079 13.9326,25.9 15.594,25.9 L29.5118,25.9 L29.5118,25.8753 C30.9054,25.7427 32,24.5831 32,23.1557 C32,21.6399 30.7715,20.4101 29.2557,20.4101 L29.2557,20.4101 Z"
  />
</svg>