<?xml version="1.0" encoding="UTF-8"?>
<svg width="36" height="36" viewBox="0 0 36 36" version="1.1" xmlns="http://www.w3.org/2000/svg">
  <title>box icon</title>
  <path
     d="m 3.6737826,7.9322034 c -0.7421333,0 -1.2368889,0.4947555 -1.2368889,1.2368889 l 0,10.6295137 c 0,3.3396 2.8448445,6.184445 6.1844445,6.184445 2.3500898,0 4.4528008,-1.345117 5.5660008,-3.32414 1.1132,1.979023 3.092222,3.32414 5.566,3.32414 3.463289,0 6.184445,-2.844845 6.184445,-6.184445 0,-3.463289 -2.721156,-6.300402 -6.184445,-6.300402 -2.350089,0 -4.4528,1.345116 -5.566,3.324138 -0.989511,-1.979022 -3.092222,-3.324138 -5.5660008,-3.324138 -1.3605777,0 -2.7211555,0.494755 -3.7106667,1.236888 l 0,-5.5659997 c 0,-0.6184445 -0.6184444,-1.2368889 -1.2368889,-1.2368889 l 0,0 z M 25.628561,13.420898 c -0.156543,0.03285 -0.301491,0.100497 -0.42518,0.193263 -0.494755,0.371068 -0.641636,1.24462 -0.270569,1.739376 l 3.246833,4.329111 -3.246833,4.329112 c -0.371067,0.494755 -0.224186,1.368307 0.270569,1.739374 0.494756,0.371066 1.368308,0.224186 1.739374,-0.27057 l 2.705696,-3.710666 2.705694,3.710666 c 0.371067,0.494756 1.244619,0.641636 1.739374,0.27057 0.494757,-0.371067 0.641637,-1.244619 0.27057,-1.739374 l -3.246833,-4.329112 3.246833,-4.329111 c 0.371067,-0.494756 0.224187,-1.368308 -0.27057,-1.739376 -0.494755,-0.371066 -1.368307,-0.262838 -1.739374,0.231917 l -2.705694,3.710667 -2.705696,-3.710667 c -0.278299,-0.371066 -0.844563,-0.523745 -1.314194,-0.42518 l 0,0 z M 8.6213382,16.087939 c 1.9790228,0 3.7106678,1.731645 3.7106678,3.710667 0.123689,1.979023 -1.607955,3.710667 -3.7106678,3.710667 -2.1027111,0 -3.7106667,-1.731644 -3.7106667,-3.710667 0,-2.10271 1.7316445,-3.710667 3.7106667,-3.710667 l 0,0 z m 11.1320008,0 c 2.102711,0 3.710667,1.731645 3.710667,3.710667 0,1.979023 -1.731645,3.710667 -3.710667,3.710667 -2.102711,0 -3.710666,-1.731644 -3.710666,-3.710667 0,-2.10271 1.731643,-3.710667 3.710666,-3.710667 l 0,0 z"
  />
</svg>
