<?xml version="1.0" encoding="UTF-8"?>
<svg width="36" height="36" viewBox="0 0 36 36" version="1.1" xmlns="http://www.w3.org/2000/svg">
  <title>Camera icon</title>
  <path
     d="m 26.527688,7.7010011 0,-1.2113332 C 26.005756,5.018023 25.072357,4.0670012 24.09692,4.0670012 l -12.153848,0 c -1.152941,0 -2.0863435,0.9510218 -2.4307688,2.4226667 l 0,1.2113332 -4.8640746,0 c -1.3410759,0 -2.4282329,1.0781571 -2.4282329,2.4227949 l 0,15.747076 c 0,1.338071 1.0877435,2.422795 2.4271287,2.422795 l 26.7457426,0 c 1.340466,0 2.427129,-1.078157 2.427129,-2.422795 l 0,-15.747076 c 0,-1.3380721 -1.091732,-2.4227949 -2.428233,-2.4227949 l -4.864075,0 z M 18.572444,23.448335 c -3.903555,0 -6.629372,-2.716313 -6.629372,-5.506062 0,-3.889094 2.725817,-6.607274 6.629372,-6.607274 2.798659,0 5.524476,2.71818 5.524476,6.607274 0,2.789749 -2.725817,5.506062 -5.524476,5.506062 z m -0.452272,-9.911357 c -2.153717,0 -3.905996,1.748438 -3.905996,3.894975 0,2.146538 1.752279,3.892977 3.905996,3.892977 2.153718,0 3.905998,-1.746439 3.905998,-3.892977 0,-2.146537 -1.75228,-3.894975 -3.905998,-3.894975 z"
  />
</svg>
