<?xml version="1.0" encoding="UTF-8"?>
<svg width="36" height="36" viewBox="0 0 36 36" version="1.1" xmlns="http://www.w3.org/2000/svg">
  <title>Camera icon</title>
  <path
      d="M25,11 L25,10 C24.570563,8.78510317 23.8025751,8 23,8 L13,8 C12.0513759,8 11.283388,8.78510317 11,10 L11,11 L6.99791312,11 C5.89449617,11 5,11.8900584 5,13.0001062 L5,25.9998938 C5,27.104522 5.89497885,28 6.99700466,28 L29.0029953,28 C30.1059106,28 31,27.1099416 31,25.9998938 L31,13.0001062 C31,11.895478 30.1017394,11 29.0020869,11 L25,11 Z M18.4545455,24 C15.2427603,24 13,21.7575851 13,19.4545455 C13,16.243955 15.2427603,14 18.4545455,14 C20.7572397,14 23,16.243955 23,19.4545455 C23,21.7575851 20.7572397,24 18.4545455,24 Z M18.0824238,15.8178118 C16.3103777,15.8178118 14.868629,17.2612119 14.868629,19.033258 C14.868629,20.8053042 16.3103777,22.2470528 18.0824238,22.2470528 C19.8544699,22.2470528 21.2962186,20.8053042 21.2962186,19.033258 C21.2962186,17.2612119 19.8544699,15.8178118 18.0824238,15.8178118 Z"
  />
</svg>