<svg role="presentation" width="20" height="20" viewBox="0 0 20 20" version="1.1" xmlns="http://www.w3.org/2000/svg">
    <path d="M5,4 L5,17.0467979 C5,17.5707153 5.45066217,18 6.0085302,18 L13.9914698,18 C14.5485158,18 15,17.5705905 15,17.0467979 L15,4 L5,4 L5,4 Z M16,4 L16,17.0059397 C16,18.1072288 15.0980496,19 13.9914698,19 L6.0085302,19 C4.8992496,19 4,18.1054862 4,17.0059397 L4,4 L2.5,4 L2,4 L2,3 L2.5,3 L17.5,3 L18,3 L18,4 L17.5,4 L16,4 Z M12.5,2 L13,2 L13,1 L12.5,1 L7.5,1 L7,1 L7,2 L7.5,2 L12.5,2 Z M8,15.5 L8,16 L9,16 L9,15.5 L9,6.5 L9,6 L8,6 L8,6.5 L8,15.5 Z M11,15.5 L11,16 L12,16 L12,15.5 L12,6.5 L12,6 L11,6 L11,6.5 L11,15.5 Z"/>
</svg>