<svg
  xmlns="http://www.w3.org/2000/svg" width="32" height="32">
  <path d="M8.79678 9.5L3.16472 15.3411C3.10136 15.4108 3 15.5692 3 15.6706C3 15.8733 3.12671 16 3.32943 16H12.1988C13.6433 16 14.7 14.9103 14.7 13.4659V9.5H8.79678ZM28.6706 16H19.8012C18.3567 16 17.3 17.0897 17.3 18.5341V22.5H23.2032L28.8353 16.6589C28.8986 16.5892 29 16.4308 29 16.3294C29 16.1267 28.8733 16 28.6706 16ZM16.6589 3.16472C16.5892 3.10136 16.4308 3 16.3294 3C16.1267 3 16 3.12671 16 3.32943V12.1988C16 13.6433 17.0897 14.7 18.5341 14.7H22.5V8.79678L16.6589 3.16472ZM13.4659 17.3H9.5V23.2032L15.3411 28.8353C15.4108 28.8986 15.5692 29 15.6706 29C15.8733 29 16 28.8733 16 28.6706V19.8012C16 18.3567 14.9103 17.3 13.4659 17.3Z"/>
</svg>
