<svg width="32" height="32" xmlns="http://www.w3.org/2000/svg">
  <path fill-rule="evenodd" clip-rule="evenodd" d="M15.318 11.39V4.681A.682.682 0 0 1 16 4h.682a6.341 6.341 0 0 1 3.929 11.318h6.707A.682.682 0 0 1 28 16v.682a6.342 6.342 0 0 1-11.318 3.929v6.707A.682.682 0 0 1 16 28h-.682a6.342 6.342 0 0 1-3.929-11.318H4.682A.682.682 0 0 1 4 16v-.682a6.341 6.341 0 0 1 11.318-3.929Zm1.362 5.292a4.977 4.977 0 1 0 9.955 0H16.68Zm0-11.318a4.977 4.977 0 0 1 0 9.954V5.364Zm-1.362 9.954H5.364a4.977 4.977 0 1 1 9.954 0Zm0 1.362v9.956a4.977 4.977 0 0 1-.056-9.954l.056-.002Z"/>
</svg>
