<svg xmlns="http://www.w3.org/2000/svg" width="32" height="32" viewBox="0 0 32 32">
    <path fill-rule="evenodd" d="M24.8965517,6 L7.10344828,6 C6.49403062,6 6,6.49403062 6,7.10344828 L6,24.8965517 C6,25.5059694 6.49403062,26 7.10344828,26 L16.6896552,26 L16.6896552,18.2655172 L14.0862069,18.2655172 L14.0862069,15.237931 L16.6896552,15.237931 L16.6896552,13.0103448 C16.6896552,10.4275862 18.2689655,9.02068966 20.5724138,9.02068966 C21.3486461,9.01899684 22.1244303,9.05813135 22.8965517,9.13793103 L22.8965517,11.837931 L21.3103448,11.837931 C20.0551724,11.837931 19.8103448,12.4310345 19.8103448,13.3068966 L19.8103448,15.2344828 L22.8103448,15.2344828 L22.4206897,18.262069 L19.7931034,18.262069 L19.7931034,26 L24.8965517,26 C25.5059694,26 26,25.5059694 26,24.8965517 L26,7.10344828 C26,6.49403062 25.5059694,6 24.8965517,6 Z"/>
</svg>
