<svg width="32" height="32" xmlns="http://www.w3.org/2000/svg" viewBox="0 0 32 32">
  <path d="M15.76 3.252c-.059.138-1.805 3.07-3.881 6.515-2.077 3.446-3.793 6.31-3.814 6.365-.028.072 1.1.773 3.955 2.46l3.995 2.36 3.992-2.36c2.87-1.697 3.983-2.39 3.955-2.463C23.817 15.753 16.052 3 15.968 3c-.057 0-.151.113-.209.252ZM8.073 17.829c.154.263 7.908 11.172 7.94 11.171.053-.002 7.98-11.203 7.95-11.234-.03-.029-7.439 4.335-7.748 4.563l-.19.14-3.835-2.265a734.48 734.48 0 0 1-4.01-2.377c-.158-.101-.167-.101-.107.002Z"/>
</svg>
